<svg xmlns="http://www.w3.org/2000/svg" version="1.1" xmlns:xlink="http://www.w3.org/1999/xlink" xmlns:svgjs="http://svgjs.dev/svgjs" width="1500" height="537" viewBox="0 0 1500 537"><g transform="matrix(1,0,0,1,-0.9090909090909918,-0.47609245027774705)"><svg viewBox="0 0 396 142" data-background-color="#161618" preserveAspectRatio="xMidYMid meet" height="537" width="1500" xmlns="http://www.w3.org/2000/svg" xmlns:xlink="http://www.w3.org/1999/xlink"><g id="tight-bounds" transform="matrix(1,0,0,1,0.2400000000000091,0.12589409299710042)"><svg viewBox="0 0 395.52 141.74821181400577" height="141.74821181400577" width="395.52"><g><svg viewBox="0 0 591.1848864026842 211.87146161773518" height="141.74821181400577" width="395.52"><g transform="matrix(1,0,0,1,195.66488640268426,65.47135693229478)"><svg viewBox="0 0 395.52 80.9287477531456" height="80.9287477531456" width="395.52"><g id="textblocktransform"><svg viewBox="0 0 395.52 80.9287477531456" height="80.9287477531456" width="395.52" id="textblock"><g><svg viewBox="0 0 395.52 80.9287477531456" height="80.9287477531456" width="395.52"><g transform="matrix(1,0,0,1,0,0)"><svg width="395.52" viewBox="3.64 -33.11 162.97000000000003 33.35" height="80.9287477531456" data-palette-color="#ffffff"><path d="M6.76-28.91L6.76-15.63 8.81-15.63Q11.38-15.63 12.67-15.7 13.96-15.77 15.49-16.09 17.02-16.41 17.68-17.09 18.33-17.77 18.8-18.98 19.26-20.19 19.26-22.05L19.26-22.05Q19.26-25.98 17.63-27.44 15.99-28.91 12.35-28.91L12.35-28.91 6.76-28.91ZM3.64-31.35L12.16-31.35Q14.65-31.35 16.44-30.91 18.24-30.47 19.62-29.43 21-28.39 21.69-26.56 22.39-24.73 22.39-22.09L22.39-22.09Q22.39-19.87 21.83-18.27 21.26-16.67 20.25-15.67 19.24-14.67 17.57-14.1 15.89-13.53 13.98-13.31 12.06-13.09 9.38-13.09L9.38-13.09 6.76-13.09 6.76 0 3.64 0 3.64-31.35ZM30.86-30.86L30.86-30.86Q30.86-31.88 31.49-32.5 32.13-33.11 33.08-33.11L33.08-33.11Q34.08-33.11 34.68-32.54 35.28-31.98 35.28-30.91 35.28-29.83 34.68-29.27 34.08-28.71 33.08-28.71L33.08-28.71Q32.1-28.71 31.48-29.28 30.86-29.86 30.86-30.86ZM31.52-21.85L26.83-21.85 26.83-24.05 34.64-24.05 34.64-2.2 39.33-2.2 39.33 0 26.83 0 26.83-2.2 31.52-2.2 31.52-21.85ZM59.66 0L56.68 0 50.92-10.33 45.06 0 41.89 0 49.14-12.3 42.18-24.05 45.26-24.05 50.9-14.14 56.07-24.05 59.2-24.05 52.7-12.28 59.66 0ZM62.44-31.37L65.67-31.37Q67.25-25.17 69.93-15.66 72.6-6.15 73.38-3.27L73.38-3.27Q74.06-5.86 76.74-15.48 79.41-25.1 81.02-31.37L81.02-31.37 84.32-31.37 75.31 0 71.45 0 62.44-31.37ZM98.09-21.85L98.09-21.85Q95.01-21.85 93.37-19.71 91.74-17.58 91.45-13.65L91.45-13.65 103.82-13.65 103.82-14.87Q103.82-18.07 102.27-19.96 100.72-21.85 98.09-21.85ZM98.5-2.34L98.5-2.34Q102.26-2.34 105.34-4.3L105.34-4.3 106.29-1.83Q104.63-0.81 102.58-0.28 100.53 0.24 98.67 0.24L98.67 0.24Q93.74 0.24 91.03-2.73 88.32-5.71 88.32-12.11L88.32-12.11Q88.32-18.24 90.96-21.33 93.59-24.41 98.06-24.41L98.06-24.41Q102.09-24.41 104.41-21.78 106.73-19.14 106.73-14.75L106.73-14.75Q106.73-13.75 106.53-11.45L106.53-11.45 91.45-11.45Q91.47-9.28 91.88-7.63 92.3-5.98 92.93-4.99 93.57-4 94.51-3.39 95.45-2.78 96.4-2.56 97.35-2.34 98.5-2.34ZM115.76-24.05L115.88-21.95Q117.32-22.92 119.53-23.63 121.74-24.34 123.6-24.41L123.6-24.41 123.6-21.8Q121.47-21.8 119.29-21.15 117.1-20.51 115.91-19.63L115.91-19.63 115.91 0 112.78 0 112.78-24.05 115.76-24.05ZM127.77-1.68L128.77-4.08Q129.99-3.39 131.93-2.87 133.87-2.34 135.65-2.34L135.65-2.34Q137.9-2.34 139.28-3.31 140.66-4.27 140.66-6.47L140.66-6.47Q140.66-8.18 139.88-9.02 139.1-9.86 137.46-10.38L137.46-10.38 133.8-11.52Q132.33-11.99 131.39-12.44 130.45-12.89 129.65-13.61 128.84-14.33 128.48-15.39 128.11-16.46 128.11-17.94L128.11-17.94Q128.11-21.22 130.36-22.81 132.6-24.41 136.02-24.41 139.44-24.41 142.51-23L142.51-23 141.59-20.65Q139.07-21.85 136.24-21.85L136.24-21.85Q133.97-21.85 132.53-20.89 131.09-19.92 131.09-17.82L131.09-17.82Q131.09-16.26 131.88-15.63 132.68-14.99 134.73-14.33L134.73-14.33 138.32-13.18Q140.29-12.55 141.4-11.8 142.51-11.06 143.11-9.8 143.71-8.54 143.71-6.62L143.71-6.62Q143.71-4.79 143.08-3.42 142.44-2.05 141.31-1.27 140.17-0.49 138.8-0.12 137.44 0.24 135.8 0.24L135.8 0.24Q131.75 0.24 127.77-1.68L127.77-1.68ZM157.97-21.85L157.97-21.85Q154.89-21.85 153.25-19.71 151.62-17.58 151.33-13.65L151.33-13.65 163.7-13.65 163.7-14.87Q163.7-18.07 162.15-19.96 160.6-21.85 157.97-21.85ZM158.38-2.34L158.38-2.34Q162.14-2.34 165.22-4.3L165.22-4.3 166.17-1.83Q164.51-0.81 162.46-0.28 160.41 0.24 158.55 0.24L158.55 0.24Q153.62 0.24 150.91-2.73 148.2-5.71 148.2-12.11L148.2-12.11Q148.2-18.24 150.84-21.33 153.47-24.41 157.94-24.41L157.94-24.41Q161.97-24.41 164.29-21.78 166.61-19.14 166.61-14.75L166.61-14.75Q166.61-13.75 166.41-11.45L166.41-11.45 151.33-11.45Q151.35-9.28 151.76-7.63 152.18-5.98 152.81-4.99 153.45-4 154.39-3.39 155.33-2.78 156.28-2.56 157.23-2.34 158.38-2.34Z" opacity="1" transform="matrix(1,0,0,1,0,0)" fill="#ffffff" class="wordmark-text-0" data-fill-palette-color="primary" id="text-0"></path></svg></g></svg></g></svg></g></svg></g><g><svg viewBox="0 0 176.55955134811265 211.87146161773518" height="211.87146161773518" width="176.55955134811265"><g><svg xmlns="http://www.w3.org/2000/svg" xmlns:xlink="http://www.w3.org/1999/xlink" version="1.1" x="0" y="0" viewBox="8 0 80 96" enable-background="new 0 0 96 96" xml:space="preserve" height="211.87146161773518" width="176.55955134811265" class="icon-icon-0" data-fill-palette-color="accent" id="icon-0"><path d="M20 60H76V12H20zM33.668 13.952C36.976 13.952 39.668 16.644 39.668 19.952 39.668 23.256 36.976 25.952 33.668 25.952S27.668 23.256 27.668 19.952C27.668 16.644 30.36 13.952 33.668 13.952M25.312 49.084L34.64 30.844C34.9 30.332 35.376 29.952 35.936 29.816A2 2 0 0 1 37.564 30.108L46.44 36.28 55.352 20.788A1.99 1.99 0 0 1 57.212 19.788 2.01 2.01 0 0 1 58.932 21.012L70.712 49.224A2.02 2.02 0 0 1 70.532 51.107 2 2 0 0 1 68.868 52H27.096A2 2 0 0 1 25.392 51.044 2 2 0 0 1 25.312 49.084" fill="#ffffff" data-fill-palette-color="accent"></path><path d="M35.668 19.952A2 2 0 1 1 31.669 19.953 2 2 0 0 1 35.668 19.952" fill="#ffffff" data-fill-palette-color="accent"></path><path d="M86 0H10C8.896 0 8 0.9 8 2V94C8 95.1 8.896 96 10 96H86C87.1 96 88 95.1 88 94V2C88 0.9 87.1 0 86 0M64 84H20C18.896 84 18 83.1 18 82S18.896 80 20 80H64C65.1 80 66 80.9 66 82S65.1 84 64 84M18 74C18 72.9 18.896 72 20 72H36C37.104 72 38 72.9 38 74S37.104 76 36 76H20C18.896 76 18 75.1 18 74M80 62C80 63.1 79.1 64 78 64H18C16.896 64 16 63.1 16 62V10C16 8.9 16.896 8 18 8H78C79.1 8 80 8.9 80 10z" fill="#ffffff" data-fill-palette-color="accent"></path><path d="M56.8 26.296L48.82 40.172C48.54 40.656 48.068 41 47.524 41.124A2.03 2.03 0 0 1 45.944 40.812L37.16 34.712 30.364 48H65.864z" fill="#ffffff" data-fill-palette-color="accent"></path></svg></g></svg></g></svg></g><defs></defs></svg><rect width="395.52" height="141.74821181400577" fill="none" stroke="none" visibility="hidden"></rect></g></svg></g></svg>